<svg xmlns="http://www.w3.org/2000/svg"><symbol id="icon-burger" viewBox="0 0 76.166 68.959"><path d="M71.914 46.042H4.252A4.265 4.265 0 0 0 0 50.294v3.454A4.265 4.265 0 0 0 4.252 58h.956v1.037c0 5.457 4.464 9.922 9.921 9.922h45.908c5.456 0 9.921-4.465 9.921-9.922V58h.956a4.265 4.265 0 0 0 4.252-4.252v-3.454a4.264 4.264 0 0 0-4.252-4.252zm-3.956 12.995c0 3.815-3.104 6.922-6.921 6.922H15.129a6.929 6.929 0 0 1-6.921-6.922V58h59.75v1.037zm5.208-5.289c0 .679-.573 1.252-1.252 1.252H4.252A1.268 1.268 0 0 1 3 53.748v-3.454c0-.679.573-1.252 1.252-1.252h67.662c.679 0 1.252.573 1.252 1.252v3.454zM16.162 37.856l5.473 4 5.477-4 5.479 4 5.478-4 5.479 4 5.478-4 5.479 4 5.48-4 5.489 4 6.368-4.644-1.768-2.424-4.6 3.356-5.489-4-5.48 4-5.479-4.001-5.478 4.001-5.479-4.001-5.478 4.001-5.479-4.001-5.476 4.001-5.473-4.002-5.477 4.002-4.593-3.355-1.77 2.422 6.363 4.645zM70.888 31.094c.041-.61.055-2.616.037-3C70.242 12.476 55.804 0 38.083 0 20.363 0 5.924 12.476 5.241 28.094c-.017.384-.004 2.389.039 3h65.608zM38.083 3c16.031 0 29.15 11.154 29.842 25.094H8.241C8.933 14.154 22.051 3 38.083 3z"/><circle cx="38.083" cy="15.042" r="2"/><circle cx="30.083" cy="10.083" r="2"/><circle cx="46.083" cy="10.083" r="2"/></symbol><symbol id="icon-gift" viewBox="0 0 63 75.084"><path d="M60.165 22.23H35.758c13.604-6.815 14.688-11.115 14.188-13.52-1.145-3.916-5.604-6.938-9.848-5.341-5.484 2.063-7.029 10.262-8.514 16.19-1.894-5.998-3.726-13.649-8.011-17.525C22.331.909 20.524-.203 17.897.031c-3.965.352-9.652 5.317-7.344 10.849 2.217 5.313 9.539 8.67 14.354 11.35H2.834A2.843 2.843 0 0 0 0 25.065V36.25a2.842 2.842 0 0 0 2.835 2.834h.27v35.999h56.958V39.084h.104a2.842 2.842 0 0 0 2.835-2.834V25.065a2.846 2.846 0 0 0-2.837-2.835zM41.766 5.873c2.07-.306 4.907 1.283 5.176 3.171.386 2.723-3.349 5.192-5.008 6.343-2.484 1.723-4.853 2.611-7.178 4.006.872-3.645 2.512-12.854 7.01-13.52zm-22.534 9.848c-2.19-1.467-6.444-4.378-6.342-7.678.11-3.552 5.655-6.491 8.68-3.839 3.797 3.331 5.625 10.972 7.01 16.357-3.199-1.519-6.23-2.753-9.348-4.84zm5.882 56.426H6.042V39.084h19.072v33.063zm0-36.063H3V25.23h22.114v10.854zm10.001 36.062h-7.063V25.23h7.063v46.916zm22.01.001H38.053V39.084h19.072v33.063zM60 36.084H38.053V25.23H60v10.854z"/></symbol><symbol id="icon-house" viewBox="0 0 74.695 72.346"><path d="M29.503 65.345h16V41.407h-16v23.938zm13.063-2.938H32.441V44.345h10.125v18.062z"/><path d="M72.62 39.44l2.075-2.078-9.907-9.913V.47H50.974v13.161L37.349 0 0 37.363l2.077 2.078 7.832-7.832v37.799H5.971v2.938h63.875v-2.938h-5.059v-37.8l7.833 7.832zM53.913 3.408h7.938v21.104l-7.938-7.94V3.408zm7.937 65.999H12.846V28.671L37.348 4.169 61.85 28.671v40.736z"/><path d="M29.753 27.21a7.75 7.75 0 1 0 15.5 0 7.75 7.75 0 0 0-15.5 0zm7.75-4.969a4.97 4.97 0 1 1 0 9.941 4.97 4.97 0 0 1 0-9.941zM16.909 41.407h3v3.938h-3zM22.846 41.407h3v3.938h-3zM16.909 47.407h3v3.938h-3zM22.846 47.407h3v3.938h-3zM48.846 41.407h3v3.938h-3zM54.784 41.407h3v3.938h-3zM48.846 47.407h3v3.938h-3zM54.784 47.407h3v3.938h-3z"/></symbol><symbol id="icon-like" viewBox="0 0 22 20"><path d="M12.383 3.646l-.637 2.929L11.219 9H19.9v2l.001.058L17 18H8V8.029l.014-.015 4.369-4.368M2 10v8-8M13.2 0L6.6 6.6c-.4.3-.6.8-.6 1.4v10c0 1.1.9 2 2 2h9c.8 0 1.5-.5 1.8-1.2l3-7.1c.1-.2.1-.5.1-.7V9h.1c0-1.1-.9-2-2-2h-6.3l1-4.6v-.3c0-.4-.2-.8-.4-1.1l-1.1-1zM4 8H0v12h4V8zm18 1v.044V9z"/></symbol><symbol id="icon-mail" viewBox="0 0 16 16"><path d="M8 10c-.266 0-.5-.094-1-.336L0 6v7c0 .55.45 1 1 1h14c.55 0 1-.45 1-1V6L9 9.664c-.5.242-.734.336-1 .336zm7-8H1c-.55 0-1 .45-1 1v.758l8 4.205 8-4.205V3c0-.55-.45-1-1-1z"/></symbol><symbol id="icon-phone" viewBox="0 0 18 18"><path fill="#010101" d="M3.6 7.8c1.4 2.8 3.8 5.1 6.6 6.6l2.2-2.2c.3-.3.699-.4 1-.2 1.1.4 2.3.6 3.6.6.6 0 1 .4 1 1V17c0 .6-.4 1-1 1C7.6 18 0 10.4 0 1c0-.6.4-1 1-1h3.5c.6 0 1 .4 1 1 0 1.2.2 2.4.6 3.6.1.3 0 .7-.2 1L3.6 7.8z"/></symbol><symbol id="icon-tick" viewBox="0 0 23.049 16.249"><path d="M22.801 1.299L21.75.248a.853.853 0 0 0-1.203 0L8.693 12.102 2.502 5.911a.853.853 0 0 0-1.203 0L.248 6.962a.852.852 0 0 0 0 1.202l7.837 7.837a.845.845 0 0 0 .608.246c.22.002.44-.079.608-.246l13.5-13.5a.852.852 0 0 0 0-1.202z"/></symbol></svg>